<svg width="40" height="40" viewBox="0 0 40 40" fill="none" xmlns="http://www.w3.org/2000/svg">
<path d="M34 0H6C2.68629 0 0 2.68629 0 6V34C0 37.3137 2.68629 40 6 40H34C37.3137 40 40 37.3137 40 34V6C40 2.68629 37.3137 0 34 0Z" fill="#575350"/>
<path d="M27.7812 25.7812L28.6719 20H23.125V16.25C23.125 14.6719 23.8984 13.125 26.3828 13.125H28.9062V8.20312C28.9062 8.20312 26.6172 7.8125 24.4297 7.8125C19.8594 7.8125 16.875 10.5781 16.875 15.5938V20H11.7969V25.7812H16.875V40H23.125V25.7812H27.7812Z" fill="white"/>
</svg>
