<svg width="74" height="74" viewBox="0 0 74 74" fill="none" xmlns="http://www.w3.org/2000/svg">
<path d="M61.7641 33.8856H12.168C10.5517 33.8856 9.24152 35.1958 9.24152 36.812V37.1201C9.24152 38.7363 10.5517 40.0466 12.168 40.0466H61.7641C63.3804 40.0466 64.6906 38.7363 64.6906 37.1201V36.812C64.6906 35.1958 63.3804 33.8856 61.7641 33.8856Z" fill="white"/>
<path d="M61.7641 49.2881H12.168C10.5517 49.2881 9.24152 50.5983 9.24152 52.2146V52.5226C9.24152 54.1389 10.5517 55.4491 12.168 55.4491H61.7641C63.3804 55.4491 64.6906 54.1389 64.6906 52.5226V52.2146C64.6906 50.5983 63.3804 49.2881 61.7641 49.2881Z" fill="white"/>
<path d="M61.7641 18.483H12.168C10.5517 18.483 9.24152 19.7933 9.24152 21.4095V21.7176C9.24152 23.3338 10.5517 24.644 12.168 24.644H61.7641C63.3804 24.644 64.6906 23.3338 64.6906 21.7176V21.4095C64.6906 19.7933 63.3804 18.483 61.7641 18.483Z" fill="white"/>
</svg>
