<svg width="40" height="40" viewBox="0 0 40 40" fill="none" xmlns="http://www.w3.org/2000/svg">
<path d="M40 31.6364C40 32.1819 39.9055 32.7273 39.7166 33.6364C39.5258 34.3636 39.3277 35.0909 39.1188 35.4545C38.7209 36.5455 37.5653 37.4545 35.6539 38.5454C33.8733 39.4545 32.1108 40 30.3684 40H28.864C28.3897 39.8182 27.8501 39.6362 27.2432 39.6362C26.6382 39.4544 26.184 39.2727 25.8805 39.0909C25.5971 39.0909 25.0756 38.909 24.318 38.5454C23.5603 38.1817 23.097 38.1819 22.9262 38C21.0693 37.4546 19.4122 36.5454 17.955 35.6363C15.5301 34.1818 13.0208 32.1817 10.426 29.6362C7.85028 26.909 5.8144 24.3636 4.31815 22C3.40913 20.5454 2.62312 18.9091 1.9603 17.091C1.90343 16.9091 1.733 16.3636 1.44883 15.6363C1.16484 14.909 0.965887 14.3635 0.852328 13.9999C0.757484 13.8181 0.625028 13.2727 0.454599 12.7273C0.28417 12.1818 0.160981 11.6363 0.0852147 11.0909C0.0283444 10.5454 0 10.1817 0 9.63623C0 7.81805 0.482943 6.00004 1.44883 4.36368C2.50938 2.36368 3.51324 1.27277 4.46023 0.727317C4.93373 0.545499 5.57765 0.363592 6.39201 0.181774C7.22526 -4.43919e-05 7.89771 0 8.40899 0H9.00568C9.34654 0.181818 9.84838 0.909002 10.5114 2.18173C10.7196 2.54537 11.0038 3.09091 11.3635 3.63636C11.7235 4.36364 12.0549 4.90909 12.3579 5.45455C12.6608 6 12.9544 6.5455 13.2386 7.09095C13.2953 7.09095 13.4563 7.27259 13.7216 7.81805C14.0055 8.18169 14.2139 8.54532 14.3466 8.72714C14.479 9.09078 14.5454 9.27259 14.5454 9.63623C14.5454 9.99987 14.2708 10.3636 13.7216 11.0909C13.1912 11.6363 12.6041 12.1819 11.9602 12.5455C11.3352 13.091 10.7479 13.4545 10.1989 13.9999C9.6685 14.5454 9.40341 15.0909 9.40341 15.4545C9.40341 15.6364 9.45065 15.818 9.54531 15.9999C9.64015 16.3635 9.71592 16.5454 9.77261 16.5454C9.84838 16.7272 9.98101 16.9091 10.1703 17.2727C10.3787 17.6364 10.4923 17.818 10.5114 17.818C11.9508 20.3635 13.5984 22.7273 15.4544 24.5455C17.31 26.3636 19.5358 27.9999 22.1304 29.4545C22.1685 29.4545 22.3484 29.6364 22.67 29.8182C22.9916 30 23.2187 30.1818 23.3514 30.1818C23.484 30.1818 23.6748 30.3635 23.9201 30.3635C24.1853 30.5454 24.4034 30.5453 24.5742 30.5453C24.9139 30.5453 25.35 30.3637 25.8805 29.8182C26.4111 29.2728 26.9126 28.7273 27.3868 28C27.8592 27.4546 28.3807 26.7273 28.9494 26.1819C29.5162 25.6364 29.9905 25.4545 30.3684 25.4545C30.6337 25.4545 30.8989 25.4545 31.1642 25.6363C31.4495 25.8181 31.7892 26 32.1871 26.1819C32.5851 26.5455 32.8213 26.7272 32.8976 26.7272C33.3718 27.0908 33.8733 27.2726 34.4038 27.6363C34.9525 27.9999 35.5576 28.1817 36.2208 28.5454C36.8839 28.909 37.3963 29.2726 37.7561 29.4545C39.0806 30.1817 39.8001 30.7273 39.9146 30.9091C39.9709 31.0909 40 31.2728 40 31.6364Z" fill="white"/>
<path d="M0.397547 6.81812C0.133545 7.74102 0 8.68975 0 9.60212C0 10.1148 0.0566886 10.5865 0.113559 11.0796C0.189325 11.5538 0.283806 12.1196 0.454236 12.7272C0.624665 13.3339 0.756938 13.787 0.851783 14.0908C0.965342 14.3752 1.1921 14.9227 1.47627 15.6818C1.76044 16.4399 1.9305 16.8745 1.98737 17.0454C2.65019 18.9054 3.40622 20.5836 4.31524 22.0454C5.81149 24.4745 7.87172 26.9454 10.4474 29.5454C13.042 32.1254 15.5181 34.1818 17.9423 35.6818C19.4013 36.5927 21.082 37.4036 22.9389 38.069C23.1097 38.1254 23.5439 38.2945 24.3016 38.5799C25.0593 38.8636 25.608 39.0345 25.8914 39.1472C26.1949 39.2418 26.6473 39.3745 27.2541 39.5454C27.861 39.7163 28.3697 39.8672 28.844 39.9436C29.3364 39.9999 29.8651 39.9999 30.3775 39.9999C32.1199 39.9999 33.8769 39.5472 35.6575 38.5799C37.5707 37.5163 38.7227 36.5163 39.1206 35.5672C39.3295 35.0945 39.4985 34.4527 39.6893 33.6363C39.8783 32.8018 39.9727 32.1018 39.9727 31.5908C39.9727 31.3254 39.9727 31.0981 39.9164 30.9654C39.8492 30.7636 39.504 30.4872 39.0079 30.1708C38.5483 31.069 37.4581 32.0108 35.6575 33.0108C33.8769 33.9781 32.1199 34.489 30.3775 34.489C29.8651 34.489 29.3364 34.4327 28.844 34.3745C28.3697 34.2981 27.861 34.2054 27.2541 34.0345C26.6473 33.8636 26.1949 33.7308 25.8914 33.6363C25.608 33.5218 25.0593 33.2963 24.3016 33.0108C23.5439 32.7272 23.1097 32.5563 22.9389 32.4999C21.082 31.8363 19.4013 31.0818 17.9423 30.1708C15.5181 28.6708 13.042 26.6145 10.4474 24.0345C7.87172 21.4345 5.81149 18.9054 4.31524 16.4763C3.40622 15.0159 2.65019 13.3938 1.98737 11.5341C1.9305 11.3632 1.76044 10.8725 1.47627 10.1136C1.1921 9.35448 0.965342 8.86393 0.851783 8.57957C0.756938 8.27557 0.624665 7.82248 0.454236 7.21593C0.413536 7.07121 0.432614 6.95539 0.397547 6.81812Z" fill="#BBBBBB"/>
</svg>
