<svg width="46" height="40" viewBox="0 0 46 40" fill="none" xmlns="http://www.w3.org/2000/svg">
<path d="M12.6885 39.9845C16.3846 40.1082 20.0679 39.4897 23.5208 38.1656C26.9737 36.8415 30.1262 34.8387 32.7919 32.2755C35.4576 29.7123 37.5825 26.6408 39.0409 23.2424C40.4993 19.8441 41.2617 16.1878 41.2831 12.4898C42.9769 10.3937 44.2346 7.98022 44.9823 5.39114C45.0382 5.18659 45.0337 4.97025 44.9694 4.7682C44.9051 4.56614 44.7838 4.38698 44.62 4.25227C44.4563 4.11757 44.2571 4.03308 44.0464 4.00898C43.8357 3.98487 43.6226 4.02217 43.4326 4.11639C42.5465 4.54294 41.5489 4.68072 40.5803 4.51033C39.6117 4.33993 38.721 3.86994 38.0337 3.16657C37.1562 2.2057 36.0948 1.43073 34.9124 0.887574C33.7299 0.34442 32.4505 0.0441343 31.1499 0.00450951C29.8492 -0.0351153 28.5539 0.186727 27.3406 0.656892C26.1273 1.12706 25.0207 1.83598 24.0863 2.74165C22.8071 3.98056 21.8701 5.52934 21.3664 7.23748C20.8627 8.94561 20.8095 10.755 21.2119 12.4898C12.8385 12.9897 7.08959 9.01545 2.49047 3.56649C2.35231 3.41003 2.17157 3.29718 1.97033 3.24173C1.76909 3.18628 1.55606 3.19063 1.35725 3.25425C1.15844 3.31787 0.982463 3.438 0.850801 3.59998C0.719138 3.76196 0.637491 3.95877 0.61583 4.16638C-0.260328 9.02651 0.3717 14.0384 2.42703 18.5288C4.48236 23.0193 7.86256 26.7732 12.1136 29.2866C9.26327 32.5555 5.26046 34.5972 0.940768 34.9855C0.709343 35.0239 0.495708 35.1336 0.329764 35.2994C0.163819 35.4653 0.0538707 35.6788 0.015305 35.9102C-0.0232608 36.1416 0.011487 36.3793 0.114685 36.5899C0.217883 36.8006 0.384366 36.9737 0.590835 37.0851C4.34892 38.9631 8.4874 39.955 12.6885 39.9845Z" fill="white"/>
</svg>
